<?xml version="1.0" standalone="no"?><!DOCTYPE svg PUBLIC "-//W3C//DTD SVG 1.1//EN" "http://www.w3.org/Graphics/SVG/1.1/DTD/svg11.dtd"><svg t="1771418320028" class="icon" viewBox="0 0 1024 1024" version="1.1" xmlns="http://www.w3.org/2000/svg" p-id="28211" xmlns:xlink="http://www.w3.org/1999/xlink" width="64" height="64"><path d="M905.728 304.512h-98.432V118.528a32.832 32.832 0 0 0-18.816-29.76 34.112 34.112 0 0 0-35.008 4.352L544.704 266.88V75.84A33.088 33.088 0 0 0 512 43.008a33.152 33.152 0 0 0-32.896 32.832v191.488l-208.64-174.208a32 32 0 0 0-35.008-4.352 32.832 32.832 0 0 0-18.816 29.76v186.048h-98.56a33.024 33.024 0 0 0-32.768 32.768v350.08c0 17.92 14.912 32.832 32.832 32.832h98.432v185.984a32.96 32.96 0 0 0 32.896 32.768 34.112 34.112 0 0 0 20.928-7.424l208.768-173.696v191.424c0 17.92 14.848 32.896 32.832 32.896 17.92 0 32.832-14.976 32.832-32.896v-191.424l208.704 173.696a34.112 34.112 0 0 0 20.992 7.488 32.832 32.832 0 0 0 32.832-32.832v-186.048h98.496c17.92 0 32.768-14.848 32.768-32.768V337.28a33.088 33.088 0 0 0-32.832-32.832z m-164.032-115.968v115.968H602.496l139.2-115.968z m-459.52 0l139.136 115.968H282.24V188.544z m-131.328 466.112V370.176h281.856L226.176 576.64a32.832 32.832 0 0 0-9.6 23.168v54.72H150.784z m131.328 32.832V613.504l196.928-196.928v255.552l-196.928 164.096v-148.736z m459.52 148.736L544.64 672.128V416.576l196.992 196.928v222.72z m131.2-181.632h-65.6v-54.656a32.64 32.64 0 0 0-9.6-23.168L591.104 370.24h281.792v284.416z" p-id="28212" fill="#ffffff"></path></svg>