<?xml version="1.0" standalone="no"?><!DOCTYPE svg PUBLIC "-//W3C//DTD SVG 1.1//EN" "http://www.w3.org/Graphics/SVG/1.1/DTD/svg11.dtd"><svg t="1771418137976" class="icon" viewBox="0 0 1024 1024" version="1.1" xmlns="http://www.w3.org/2000/svg" p-id="23770" xmlns:xlink="http://www.w3.org/1999/xlink" width="64" height="64"><path d="M513.48274737 62.01184414c-170.13231299-1.47684287-309.5462918 135.27881807-311.02313467 305.41113106-1.47684287 170.13231299 135.27881807 309.5462918 305.41113105 311.02313467h106.92343301v-115.48912237h-101.31142939c-106.33269551 1.18147412-193.76180068-83.88468193-194.94327481-190.51274619-1.18147412-106.62806425 83.88468193-193.76180068 190.51274619-194.9432748h4.43052862c106.33269551 0 192.58032656 86.24763105 193.17106318 192.58032656v283.84922285c0 105.44659013-85.9522623 191.39885156-191.10348282 192.58032656-50.50803076-0.29536875-98.6531124-20.67580195-134.09734394-56.41540225l-81.81710157 81.81710157c56.71077099 57.00613974 133.50660644 89.49668555 213.84686515 90.08742304h4.13516073c168.06473261-2.36294912 303.04818193-138.82324131 303.93428819-306.88797392v-292.71028184c-4.13516075-166.88325849-140.89082167-300.09449619-308.06944892-300.38986494z" p-id="23771" fill="#ffffff"></path></svg>