<?xml version="1.0" standalone="no"?><!DOCTYPE svg PUBLIC "-//W3C//DTD SVG 1.1//EN" "http://www.w3.org/Graphics/SVG/1.1/DTD/svg11.dtd"><svg t="1771416953138" class="icon" viewBox="0 0 1024 1024" version="1.1" xmlns="http://www.w3.org/2000/svg" p-id="13459" xmlns:xlink="http://www.w3.org/1999/xlink" width="64" height="64"><path d="M472.208221 34.257263h26.186217c-6.511639 33.256495-15.240378 33.256495-26.186217 0z" p-id="13460" fill="#ffffff"></path><path d="M253.98975 121.544652c40.344231-9.531783 56.352738 5.019025 48.008064 43.643694-45.773506 15.668086-61.773285 1.126007-48.008064-43.643694z" p-id="13461" fill="#ffffff"></path><path d="M672.969214 121.544652c40.35296-9.531783 56.352738 5.019025 48.008064 43.643694-45.145037 15.842661-61.144816 1.291853-48.008064-43.643694z" p-id="13462" fill="#ffffff"></path><path d="M463.479482 130.273391c65.378254-1.544987 82.835732 26.098929 52.372433 82.923019-70.493295 7.026635-87.950773-20.617281-52.372433-82.923019z" p-id="13463" fill="#ffffff"></path><path d="M341.277139 243.746996c45.756049-10.736349 79.213305 3.814459 100.380496 43.643694a1127.491196 1127.491196 0 0 0 0 104.744866A530.820795 530.820795 0 0 0 542.038132 422.686142c58.194502 58.194502 58.194502 116.380275 0 174.574777-32.383621 7.812221-64.391906 16.54096-96.016127 26.186216-22.170997 41.601169-9.077888 69.236356 39.279324 82.923019l39.279325-13.093108c34.242842-61.214645 79.344236-71.401084 135.295452-30.550586 26.290961 84.267245-4.259625 120.631171-91.651758 109.109235-53.56827-74.848936-105.940703-74.848936-157.117299 0-87.252473 17.501121-120.718458-15.956135-100.380496-100.380496 22.074981-24.859448 49.718896-39.410256 82.923019-43.643695 11.69651-10.369742 17.518579-23.46285 17.457477-39.279324a311.877839 311.877839 0 0 1-26.186216-78.55865c2.182185-21.141005 9.461953-40.056183 21.821847-56.736802 5.822069-14.550808 5.822069-29.092887 0-43.643695a778.690792 778.690792 0 0 1-96.016127-61.101171c-12.281336-43.154885-2.094897-78.06984 30.550586-104.744866z" p-id="13464" fill="#ffffff"></path><path d="M568.224348 243.746996c75.573421-10.238811 109.039406 21.769475 100.380497 96.016127-34.155555 49.247545-74.892579 55.069613-122.202344 17.457477-22.153539-44.560212-14.873771-82.390566 21.821847-113.473604z" p-id="13465" fill="#ffffff"></path><path d="M79.414973 261.204473c13.512088 2.801925 19.334157 11.530664 17.457478 26.186217-23.986574 0.855416-29.799914-7.873322-17.457478-26.186217z" p-id="13466" fill="#ffffff"></path><path d="M882.458947 261.204473c31.205241 6.171218 32.662941 14.899957 4.364369 26.186217-14.690467-5.909356-16.148167-14.638095-4.364369-26.186217z" p-id="13467" fill="#ffffff"></path><path d="M175.431101 296.119429c58.840429-0.960161 77.755606 25.226055 56.736802 78.558649-38.816702 22.930397-66.460618 12.743959-82.923019-30.550586a173.108349 173.108349 0 0 1 26.186217-48.008063z" p-id="13468" fill="#ffffff"></path><path d="M760.256603 296.119429c59.704574 4.504029 74.255381 32.139216 43.643694 82.923019-56.736802 13.093108-78.55865-8.728739-65.465541-65.465542 8.685095-4.940466 15.956135-10.762535 21.821847-17.457477z" p-id="13469" fill="#ffffff"></path><path d="M236.532273 435.77925c77.31044 2.9765 104.954356 40.798125 82.923018 113.473605-28.246199 32.724042-61.712184 39.995081-100.380496 21.821847-47.309765-51.647948-41.496424-96.749341 17.457478-135.295452z" p-id="13470" fill="#ffffff"></path><path d="M699.155431 435.77925c80.321855 6.389437 105.050372 47.117732 74.19428 122.202344-45.808421 35.264105-86.536717 29.442036-122.202344-17.457478-13.215311-49.081698 2.784468-83.996654 48.008064-104.744866z" p-id="13471" fill="#ffffff"></path><path d="M53.228757 479.422944c42.142351-1.003805 53.769031 17.911372 34.914955 56.736803-43.032682 3.727171-54.668091-15.188006-34.914955-56.736803z" p-id="13472" fill="#ffffff"></path><path d="M891.187685 479.422944c43.451662 3.94539 52.180401 22.860567 26.186217 56.736803-44.673685-1.536258-53.402424-20.442706-26.186217-56.736803z" p-id="13473" fill="#ffffff"></path><path d="M184.15984 627.811504c45.88698 1.641003 64.802157 24.920549 56.736802 69.829911-37.821625 36.756719-68.372211 30.943379-91.651758-17.457478 3.814459-23.785813 15.449868-41.243291 34.914956-52.372433z" p-id="13474" fill="#ffffff"></path><path d="M768.985342 627.811504c42.203452 5.760968 58.203231 29.040514 48.008063 69.829911-39.741948 38.432637-67.385864 31.161598-82.923019-21.821847 3.491496-22.345571 15.135633-38.34535 34.914956-48.008064z" p-id="13475" fill="#ffffff"></path><path d="M70.686235 732.55637h26.186216c-6.511639 33.256495-15.240378 33.256495-26.186216 0z" p-id="13476" fill="#ffffff"></path><path d="M882.458947 723.827632c28.577891 7.672561 31.484561 19.30797 8.728738 34.914955-18.696959-8.178828-21.612357-19.814237-8.728738-34.914955z" p-id="13477" fill="#ffffff"></path><path d="M463.479482 802.386281c73.120645-1.972695 87.671453 25.671221 43.643695 82.923019-63.030223 0.113474-77.581031-27.530442-43.643695-82.923019z" p-id="13478" fill="#ffffff"></path><path d="M253.98975 846.029975c40.344231-9.531783 56.352738 5.019025 48.008064 43.643695-42.91048 13.808865-58.910258-0.733214-48.008064-43.643695z" p-id="13479" fill="#ffffff"></path><path d="M672.969214 846.029975c40.35296-9.531783 56.352738 5.019025 48.008064 43.643695-45.145037 15.842661-61.144816 1.291853-48.008064-43.643695z" p-id="13480" fill="#ffffff"></path><path d="M498.394438 985.689797h-26.186217c10.945839-33.256495 19.674577-33.256495 26.186217 0z" p-id="13481" fill="#ffffff"></path></svg>