<?xml version="1.0" standalone="no"?><!DOCTYPE svg PUBLIC "-//W3C//DTD SVG 1.1//EN" "http://www.w3.org/Graphics/SVG/1.1/DTD/svg11.dtd"><svg t="1771418182545" class="icon" viewBox="0 0 1024 1024" version="1.1" xmlns="http://www.w3.org/2000/svg" p-id="24891" xmlns:xlink="http://www.w3.org/1999/xlink" width="64" height="64"><path d="M393.728 576.096c18.08 0 54.08-0.96 103.776-21.44 57.952-23.872 173.28-67.2 256.448-111.68 58.176-31.104 83.68-72.256 83.68-127.68A139.264 139.264 0 0 0 698.336 176H376.064A200.064 200.064 0 0 0 176 376.064c0 110.464 83.84 200.032 217.728 200.032zM448.224 713.888a133.984 133.984 0 0 1 82.624-123.776l101.504-42.112c102.656-42.592 215.68 32.832 215.68 144a155.904 155.904 0 0 1-155.968 155.904l-109.888-0.032a133.984 133.984 0 0 1-133.952-133.984z" fill="#ffffff" p-id="24892"></path><path d="M291.328 602.496A115.328 115.328 0 0 0 176 717.824v14.912a115.328 115.328 0 0 0 230.656 0v-14.912a115.328 115.328 0 0 0-115.328-115.328z" fill="#ffffff" p-id="24893"></path></svg>