<?xml version="1.0" standalone="no"?><!DOCTYPE svg PUBLIC "-//W3C//DTD SVG 1.1//EN" "http://www.w3.org/Graphics/SVG/1.1/DTD/svg11.dtd"><svg t="1771418438915" class="icon" viewBox="0 0 1024 1024" version="1.1" xmlns="http://www.w3.org/2000/svg" p-id="30178" xmlns:xlink="http://www.w3.org/1999/xlink" width="64" height="64"><path d="M717.344 160H306.656A146.656 146.656 0 0 0 160 306.656v410.688A146.656 146.656 0 0 0 306.656 864h410.688A146.656 146.656 0 0 0 864 717.344V306.656A146.656 146.656 0 0 0 717.344 160z" fill="#2c2c2c" p-id="30179" data-spm-anchor-id="a313x.search_index.0.i42.376a3a81RyKIFY" class="selected"></path><path d="M512 692.096l-71.2 23.712-27.744-18.496 30.208-10.08-9.28-27.84-51.84 17.28-16.832-11.2v-80.16a14.72 14.72 0 0 0-8.096-13.12l-50.56-25.28v-69.856l44-22.016 44 22.016v49.6a14.72 14.72 0 0 0 8.096 13.12l58.656 29.344 13.12-26.24-50.56-25.28v-40.544l50.56-25.28a14.72 14.72 0 0 0 8.128-13.12v-44h-29.344v34.944l-44 21.984-44-21.984v-71.104l29.344-19.52v55.68h29.312V319.424l16.832-11.232 71.168 23.712v360.192z m161.312-33.44a14.688 14.688 0 1 1-0.032 29.376 14.688 14.688 0 0 1 0.032-29.376zM643.968 336a14.688 14.688 0 1 1-0.032 29.376 14.688 14.688 0 0 1 0.032-29.376z m58.688 176a14.688 14.688 0 1 1-0.064 29.376 14.688 14.688 0 0 1 0.064-29.376z m-41.312 29.312c6.08 17.056 22.208 29.344 41.28 29.344a44.032 44.032 0 0 0 0-88c-19.072 0-35.2 12.32-41.28 29.312h-120.032v-58.656h102.656a14.656 14.656 0 0 0 14.688-14.656v-46.72c17.024-6.08 29.312-22.176 29.312-41.28 0-24.256-19.712-44-44-44-24.256 0-44 19.744-44 44 0 19.104 12.32 35.2 29.344 41.28v32.064h-88V321.28a14.656 14.656 0 0 0-10.048-13.888l-88-29.344a14.656 14.656 0 0 0-12.736 1.696l-88 58.656a14.72 14.72 0 0 0-6.56 12.224v78.944l-50.56 25.28a14.688 14.688 0 0 0-8.096 13.12v88a14.72 14.72 0 0 0 8.096 13.12l50.56 25.28v78.912c0 4.896 2.464 9.504 6.56 12.192l88 58.688a14.464 14.464 0 0 0 12.736 1.696l88-29.344a14.624 14.624 0 0 0 10.048-13.888v-73.344h67.264l25.024 25.056 0.384-0.384c-2.88 5.856-4.672 12.384-4.672 19.328 0 24.256 19.744 44 44 44s44-19.744 44-44-19.744-44-44-44a43.2 43.2 0 0 0-19.328 4.704l0.384-0.384-29.344-29.344a14.688 14.688 0 0 0-10.368-4.288h-73.344v-58.688h120.032z" fill="#FFFFFF" p-id="30180"></path></svg>