<?xml version="1.0" standalone="no"?><!DOCTYPE svg PUBLIC "-//W3C//DTD SVG 1.1//EN" "http://www.w3.org/Graphics/SVG/1.1/DTD/svg11.dtd"><svg t="1771417022829" class="icon" viewBox="0 0 1024 1024" version="1.1" xmlns="http://www.w3.org/2000/svg" p-id="15740" xmlns:xlink="http://www.w3.org/1999/xlink" width="64" height="64"><path d="M536.64 77.888l47.808 84.48c1.28 2.304 3.712 3.712 6.4 3.712h226.112c7.04 0 13.12 4.48 18.112 13.312l59.264 104.64c7.68 13.76 9.728 19.52 0.96 34.112-10.56 17.536-20.864 35.2-30.976 52.928l-14.912 26.816c-4.352 8-9.088 11.392-1.664 20.864l108.032 188.8c7.04 12.288 4.48 20.16-1.728 31.36-17.856 32-35.968 63.744-54.4 95.36-6.464 11.072-14.336 15.232-27.712 15.04-31.616-0.64-63.168-0.384-94.72 0.64a4.032 4.032 0 0 0-3.328 2.048 23421.824 23421.824 0 0 1-110.144 193.024c-6.912 11.968-15.488 14.784-29.568 14.848-40.576 0.128-81.536 0.192-122.88 0.064a21.888 21.888 0 0 1-18.944-11.008l-54.336-94.592a3.648 3.648 0 0 0-3.392-1.984H226.176c-11.584 1.216-22.528-0.064-32.768-3.776l-65.28-112.832A22.144 22.144 0 0 1 128 713.792l49.152-86.4a8.064 8.064 0 0 0 0-8c-25.6-44.288-51.072-88.768-76.352-133.248l-32.192-56.832c-6.528-12.608-7.04-20.16 3.84-39.296 18.88-33.024 37.76-66.112 56.512-99.2 5.376-9.536 12.352-13.568 23.808-13.632 35.136-0.128 70.272-0.192 105.408 0a5.056 5.056 0 0 0 4.352-2.56L376.96 75.136a19.84 19.84 0 0 1 17.152-9.984c21.376-0.064 42.88 0 64.512-0.256L499.968 64c13.888-0.128 29.44 1.28 36.672 13.888zM396.8 94.272a2.432 2.432 0 0 0-2.112 1.28l-116.736 204.16a6.4 6.4 0 0 1-5.504 3.2H155.776c-2.304 0-2.816 1.024-1.664 3.008l236.608 413.632c1.024 1.728 0.512 2.56-1.344 2.56l-113.92 0.64a8.896 8.896 0 0 0-8.064 4.672l-53.76 94.08c-1.792 3.2-0.896 4.864 2.752 4.864l232.768 0.32c1.92 0 3.264 0.768 4.288 2.432l57.088 99.968c1.92 3.328 3.776 3.328 5.696 0l203.84-356.736 31.936-56.32a2.24 2.24 0 0 1 3.84 0l58.048 103.04c0.896 1.6 2.56 2.56 4.352 2.56l112.512-0.832a1.6 1.6 0 0 0 1.472-2.432L814.08 411.2a4.416 4.416 0 0 1 0-4.608l11.968-20.608 45.568-80.512c1.024-1.728 0.512-2.56-1.408-2.56H397.952c-2.368 0-2.944-1.024-1.728-3.136l58.432-102.016a4.352 4.352 0 0 0 0-4.672l-55.68-97.536a2.496 2.496 0 0 0-2.112-1.28z m256.128 326.656c1.92 0 2.368 0.768 1.408 2.432l-33.92 59.648-106.368 186.752a2.304 2.304 0 0 1-2.048 1.152 2.368 2.368 0 0 1-2.048-1.152L369.408 424.064c-0.832-1.344-0.448-2.112 1.152-2.176l8.768-0.512 273.792-0.448h-0.128z" p-id="15741" fill="#ffffff"></path></svg>